<?xml version="1.0" encoding="utf-8" ?>
<svg xmlns="http://www.w3.org/2000/svg" xmlns:xlink="http://www.w3.org/1999/xlink" width="393" height="157">
	<path fill="#7A93D6" d="M155.308 45.4365C153.516 39.9594 154.412 32.5718 156.992 27.4481C159.423 22.6193 164.468 18.6011 169.574 16.9225C175.097 15.1068 181.2 15.9077 186.334 18.5185C191.56 21.1753 195.128 25.8832 196.91 31.3934C198.741 37.0541 197.845 43.1334 195.157 48.3626C193.999 50.6158 192.35 53.1153 190.273 54.6226C191.673 55.2576 192.88 56.5819 193.977 57.6366C198.661 62.1393 201.761 66.8031 204.052 72.905C207.284 81.5157 207.62 93.0315 203.732 101.498Q203.445 102.121 203.124 102.728C203.139 102.601 203.149 102.509 203.132 102.382C202.827 100.046 200.812 96.2081 198.883 94.8197C198.873 94.7942 198.865 94.7677 198.853 94.7433C198.5 94.0477 197.77 93.7303 197.094 93.4435C192.114 95.6905 183.571 100.391 178.633 101.736C178.588 101.661 178.594 101.664 178.525 101.587C177.404 100.348 167.893 95.1643 165.601 93.7655Q156.706 88.3941 147.897 82.8828C144.355 80.6514 140.55 77.7409 136.726 76.0937C134.304 75.0503 131.663 75.0353 129.078 75.0389C126.911 75.3044 124.58 75.1597 122.392 75.1704C125.795 63.9105 132.55 54.5198 143.062 48.9038C146.943 46.8306 150.964 45.9391 155.308 45.4365Z"/>
	<path fill="#EDF4FE" d="M173.594 22.1234C177.525 21.6522 181.267 22.3447 184.554 24.6251C188.227 27.1729 190.789 30.9083 191.571 35.3293C192.333 39.6385 191.21 43.8262 188.72 47.3882C186.22 50.9647 182.146 53.9111 177.802 54.6664C174.428 55.3904 171.275 54.7982 168.264 53.1499C164.642 51.1665 162.348 48.0156 161.205 44.0762C159.877 39.5006 160.262 34.2054 162.601 30.0075C165.025 25.6551 168.958 23.4351 173.594 22.1234Z"/>
	<path fill="#7A93D6" d="M181.718 39.123C182.301 38.9982 182.872 38.8894 183.458 39.0589C184.179 39.2677 184.838 39.8284 185.197 40.4821C185.483 41.0016 185.532 41.5916 185.349 42.1546C185.088 42.958 184.535 43.3711 183.816 43.7481C183.576 43.9971 182.924 44.1383 182.584 44.1774C182.284 44.212 182.011 44.1348 181.776 43.953C181.081 43.4174 180.873 42.4892 180.779 41.6639C180.65 40.5423 181.053 39.9528 181.718 39.123Z"/>
	<path fill="#7A93D6" d="M167.664 35.1202C168.302 35.0252 168.902 34.9322 169.514 35.1982C170.224 35.5068 170.75 36.1162 171.019 36.8354C171.249 37.4523 171.195 38.1176 170.921 38.7122C170.577 39.4557 170.043 39.8355 169.303 40.1298C169.184 40.1835 169.056 40.2298 168.924 40.2379C168.401 40.2702 167.572 40.0178 167.185 39.6677C166.603 39.1412 166.474 38.4026 166.456 37.6559C166.428 36.4778 166.891 35.923 167.664 35.1202Z"/>
	<path fill="#7A93D6" d="M168.824 44.8695C168.854 44.8672 168.883 44.8631 168.913 44.8625C168.962 44.8616 169.011 44.8651 169.061 44.8649C170.649 44.86 172.17 47.0341 173.982 47.3435C175.763 47.6473 177.137 46.178 178.829 46.228C179.247 46.2404 179.6 46.3571 179.874 46.6736C180.382 47.2589 180.301 48.1673 180.251 48.8847C179.958 49.5296 179.521 49.7724 178.927 50.1247C178.895 50.2103 178.893 50.232 178.826 50.3131C178.064 51.2396 176.238 51.6144 175.1 51.6213C172.945 51.6345 170.596 50.6901 169.069 49.1653C168.395 48.492 167.812 47.6028 167.844 46.6139C167.871 45.7606 168.264 45.4282 168.824 44.8695Z"/>
	<path fill="#EDF4FE" d="M129.078 75.0389C132.588 65.7863 138.247 57.8097 147.53 53.661C150.562 52.3063 153.804 51.6415 157.106 51.4266C157.147 51.4585 157.188 51.4898 157.228 51.5222C158.552 52.587 159.409 54.285 160.588 55.5247C164.581 59.725 170.608 62.0783 176.382 61.5602C178.726 61.3499 183.404 60.4897 185.061 58.6894C193.774 65.5944 198.865 71.512 200.207 83.0404C200.537 85.8718 200.813 91.9373 199.557 94.4028L198.883 94.8197C198.873 94.7942 198.865 94.7677 198.853 94.7433C198.5 94.0477 197.77 93.7303 197.094 93.4435C192.114 95.6905 183.571 100.391 178.633 101.736C178.588 101.661 178.594 101.664 178.525 101.587C177.404 100.348 167.893 95.1643 165.601 93.7655Q156.706 88.3941 147.897 82.8828C144.355 80.6514 140.55 77.7409 136.726 76.0937C134.304 75.0503 131.663 75.0353 129.078 75.0389Z"/>
	<path d="M273.177 29.7641C273.201 29.7212 273.227 29.6788 273.25 29.6354C274.525 27.2784 272.603 23.0374 276.042 21.9029C277.045 21.572 278.343 21.6991 279.273 22.1957C279.746 22.4483 280.135 22.8568 280.29 23.3766C281.118 26.1418 280.283 47.7043 279.221 50.5561C281.402 51.422 282.586 52.4836 283.521 54.6703C285.815 60.0347 284.442 67.8927 282.315 73.1279C281.259 75.7275 279.637 77.4127 277.039 78.4975C275.031 79.3365 272.665 79.8217 270.487 79.8346C270.744 83.2411 268.305 94.7502 266.324 97.1552C266.282 97.206 266.237 97.2542 266.193 97.3025C271.461 96.8163 276.789 96.6322 282.075 96.3949C285.382 96.2464 288.772 95.9566 292.077 96.0121C292.938 94.5468 292.646 88.8105 292.725 86.7971L293.843 63.2067C294.073 57.0443 294.018 50.7552 294.594 44.6248C294.739 43.0813 294.902 41.2937 295.536 39.8738C296.032 38.7618 297.188 38.1447 298.317 37.8425C299.561 37.5095 300.931 37.4486 302.215 37.4246C302.235 37.3923 302.255 37.3604 302.274 37.3278C303.565 35.1246 302.094 32.579 305.522 31.6039C307.912 30.9239 311.994 30.8516 314.212 32.119C314.779 32.4432 315.222 32.9106 315.537 33.4785C321.486 33.663 327.404 34.1143 333.338 34.5388C336.867 32.9058 339.807 32.1504 343.698 33.6067C343.813 33.6498 343.923 33.7123 344.028 33.776C344.622 34.1825 345.457 34.7753 345.625 35.5168C345.648 35.6196 345.657 35.7144 345.657 35.8191C346.192 37.0679 346.343 38.4143 345.963 39.7326C348.087 40.1436 350.586 40.5685 351.883 42.5157C353.363 44.7366 352.61 64.6101 351.91 67.8895C351.731 68.7271 351.468 69.4064 350.722 69.8911C350.631 69.9508 350.538 69.999 350.439 70.0449C350.277 71.7571 350.693 73.8194 350.181 75.4344C350.49 75.5633 350.829 75.7064 351.059 75.9571C352.062 77.0509 351.849 79.7607 351.813 81.1798C351.702 85.661 351.428 97.8107 350.356 101.589C350.11 102.453 349.689 103.043 349.047 103.654Q349.836 103.757 350.609 103.942C354.244 104.785 369.157 109.166 370.843 111.988C372.076 114.051 371.341 117.729 370.762 119.958C370.143 122.341 368.887 123.333 366.808 124.545C364.54 125.867 362.007 126.873 359.603 127.927C349.412 132.394 339.043 135.616 328.308 138.419C324.844 139.324 321.348 140.358 317.834 141.048C314.641 141.675 311.206 141.735 307.963 142.002C299.613 142.688 291.246 143.064 282.894 143.697Q269.648 144.635 256.416 145.765C245.629 146.733 234.81 147.874 223.984 148.304C220.443 148.445 215.78 148.776 212.333 147.845C212.08 147.777 211.566 147.604 211.387 147.393C209.533 145.205 211.652 133.224 209.737 130.006C209.725 129.986 209.712 129.965 209.699 129.945C209.691 129.988 209.686 130.031 209.676 130.074C209.434 131.105 207.385 132.385 206.519 132.98C206.83 134.762 205.241 139.715 204.714 141.588C203.971 144.231 203.076 148.853 200.468 150.246C198.52 151.286 195.682 150.433 193.593 150.283C189.924 150.019 185.858 150.259 182.296 149.293C178.293 148.208 174.255 145.56 170.532 143.715L143.155 130.216C137.383 127.345 127.699 121.624 121.638 120.422C110.187 118.153 89.2184 124.438 77.7722 127.588C71.6743 129.266 65.6053 130.861 59.5786 132.79C57.1031 133.582 54.5214 134.256 52.0911 135.162C50.3072 135.826 48.4049 137.093 46.5521 137.463C46.5033 137.473 46.4544 137.483 46.4052 137.491C45.4943 137.637 45.1771 136.9 44.3609 136.774C43.1883 136.592 42.2632 137.471 40.972 137.087C40.07 136.066 39.501 134.436 39.0641 133.158C37.4382 128.402 36.2376 123.478 34.8377 118.651C33.0236 112.395 31.052 106.195 29.2842 99.9277C28.2358 96.2106 26.5069 92.415 25.9435 88.5973C25.7891 87.5512 25.7465 86.3548 26.4322 85.4732C28.144 83.2723 53.9583 79.8059 58.6786 79.146C54.4324 73.9329 53.5495 66.8746 54.0106 60.362C54.4515 54.1344 57.3409 46.7525 62.1512 42.6207C67.0067 38.4502 74.938 37.1643 81.1607 37.6422C87.9168 38.161 95.3567 40.8538 99.8725 46.1135C103.63 42.7081 113.578 34.6708 118.04 32.7099C118.85 32.8505 119.637 33.0234 120.411 33.307C123.324 34.3753 126.522 37.7747 127.791 40.5803C128.476 42.095 128.707 43.7582 127.979 45.31C125.385 50.8472 105.843 59.8576 104.736 62.8136C105.355 64.7414 113.01 63.9746 115.384 65.7181C116.284 66.3792 116.824 67.3629 116.985 68.4568C117.332 70.82 116.259 73.3632 114.894 75.2193C117.371 75.0538 119.908 75.166 122.392 75.1704C124.58 75.1597 126.911 75.3044 129.078 75.0389C131.663 75.0353 134.304 75.0503 136.726 76.0937C140.55 77.7409 144.355 80.6514 147.897 82.8828Q156.706 88.3941 165.601 93.7655C167.893 95.1643 177.404 100.348 178.525 101.587C178.594 101.664 178.588 101.661 178.633 101.736C183.571 100.391 192.114 95.6905 197.094 93.4435C197.77 93.7303 198.5 94.0477 198.853 94.7433C198.865 94.7677 198.873 94.7942 198.883 94.8197C200.812 96.2081 202.827 100.046 203.132 102.382C203.149 102.509 203.139 102.601 203.124 102.728C205.285 104.709 208.222 120.202 209.497 121.343L209.755 121.237L209.578 121.161C209.63 121.021 209.621 103.199 209.465 102.216C210.117 101.927 210.693 101.366 211.349 101.036C213.296 100.056 215.603 100.166 217.729 100.102C217.932 99.3915 216.736 97.5416 216.538 96.732C216.373 96.0563 216.442 95.2452 216.436 94.547C216.406 91.11 216.891 82.8427 216.2 79.9683L216.085 79.7708C215.03 79.2069 213.926 78.3821 213.082 77.5335C211.554 75.997 210.923 73.4794 210.952 71.3686C211.018 66.6798 212.818 65.589 215.72 62.7115L215.787 62.6438C216.249 60.773 215.839 57.7822 215.824 55.8106C215.797 52.1794 216.047 47.9169 214.712 44.4798C213.286 40.8085 207.616 37.7548 207.65 33.616C207.657 32.856 207.964 31.947 208.52 31.4102C211.167 28.8521 223.708 29.3663 227.616 29.4547C228.055 28.5052 228.282 27.4503 228.68 26.4771C228.957 25.8008 229.425 24.9277 230.145 24.6561C232.506 23.7646 247.408 26.5571 250.016 27.7832C251.019 27.0081 251.304 25.2447 252.19 24.2635C252.623 23.7835 253.381 23.2282 254.053 23.2045C256.602 23.1145 268.091 28.0346 269.722 29.5207C270.613 29.6446 272.365 30.0841 273.177 29.7641ZM297.302 103.877C270.234 104.943 243.161 106.782 216.088 107.486C216.297 107.89 216.423 108.28 216.449 108.734C216.608 111.437 217.451 140.067 217.374 140.302C217.318 140.474 217.255 140.627 217.167 140.785C229.393 140.612 241.57 138.454 253.747 137.478Q261.69 136.837 269.642 136.336C272.014 136.195 275.075 136.412 277.311 135.859Q289.029 135.17 300.736 134.302C305.615 133.978 310.586 133.891 315.414 133.111C327.178 131.209 338.539 127.21 349.768 123.349C353.151 122.186 360.873 119.925 363.228 117.44C363.424 117.233 363.525 116.997 363.581 116.722C363.228 116.158 362.977 115.955 362.367 115.678C360.884 115.004 359.162 114.835 357.614 114.331C350.732 112.09 343.971 109.887 336.907 108.266C322.868 105.045 311.821 103.104 297.302 103.877Z"/>
	<path fill="#EDF4FE" d="M92.713 48.629C92.805 48.6566 92.8938 48.6854 92.9837 48.7194C94.2814 49.2101 95.8511 50.5994 96.3855 51.9003C96.7491 52.7853 96.3477 53.3517 96.0023 54.1484C95.8602 54.3875 95.6738 54.4668 95.4327 54.5927C94.7533 54.0508 93.4238 49.8493 92.713 48.629Z"/>
	<path fill="#EDF4FE" d="M103.973 70.1801C105.545 70.209 107.16 70.1757 108.725 70.3202C109.533 70.3948 110.084 70.6109 110.598 71.2376C110.635 72.0166 110.157 72.5586 109.729 73.1616C107.587 73.4565 105.479 73.424 103.324 73.3629L103.973 70.1801Z"/>
	<path fill="#EDF4FE" d="M96.8639 59.6024C97.2961 59.6594 97.6057 59.7209 97.9926 59.9366C98.5349 61.0741 98.3982 62.752 98.3403 64.0055C98.143 68.2801 98.0507 71.7628 94.7109 74.8138L94.2459 74.9778L94.0522 74.7627C94.3185 72.9237 95.3503 71.2443 95.697 69.3701C96.221 66.5374 96.0191 61.8833 96.8639 59.6024Z"/>
	<path fill="#EDF4FE" d="M76.4212 43.8523C78.846 43.52 81.337 44.5508 83.603 45.2741C80.8711 46.3031 78.1765 46.7056 75.2745 46.7928C72.6764 46.8278 70.1372 46.6854 67.5653 46.3173C70.4815 45.0018 73.24 44.1986 76.4212 43.8523Z"/>
	<path fill="#EDF4FE" d="M269.722 29.5207C270.613 29.6446 272.365 30.0841 273.177 29.7641C273.324 30.0191 273.454 30.2854 273.521 30.5741C273.819 31.8622 273.43 47.4758 273.08 48.4981C273.03 48.6431 272.85 48.8607 272.764 48.9962L272.149 48.9374C270.78 46.7155 272.76 34.6339 271.538 30.8682C271.529 30.8415 271.52 30.815 271.511 30.7884C271.229 30.193 270.285 29.8299 269.722 29.5207Z"/>
	<path fill="#EDF4FE" d="M118.767 39.4377C119.704 39.8329 121.03 41.9397 121.715 42.7789C116.476 46.6668 110.595 49.8267 105.12 53.3909C104.786 53.6586 104.511 53.7682 104.11 53.8825C103.3 53.3457 103.115 52.4399 102.736 51.5583C107.657 47.0769 113.717 43.7889 118.767 39.4377Z"/>
	<path fill="#EDF4FE" d="M272.534 55.3748C273.412 55.2296 274.592 55.1493 275.435 55.4753C276.315 55.8157 276.881 56.5748 277.257 57.4115C278.551 60.2924 277.813 67.1892 276.704 70.1263C276.32 71.145 275.864 71.87 274.837 72.3424L274.582 72.6195C273.364 73.0579 271.94 72.9841 270.656 73.0218C270.682 72.9923 270.708 72.9633 270.734 72.9333C273.038 70.228 271.947 61.5734 271.764 58.2995C271.698 57.1054 271.718 56.2954 272.534 55.3748Z"/>
	<path fill="#FE9F8B" d="M255.956 29.6237C256.005 29.6172 256.055 29.6128 256.105 29.604C256.258 29.5766 256.402 29.5409 256.559 29.5309C257.486 29.4722 264.372 32.7872 265.308 33.541C265.421 33.7982 265.517 34.0593 265.581 34.3334C265.901 35.7119 266.077 39.004 265.307 40.2186C254.755 40.1748 244.098 40.9429 233.552 41.3678C229.313 41.5385 225.053 41.8735 220.81 41.7297C219.121 39.7744 216.706 36.791 214.474 35.5471C218.273 35.2345 230.873 35.7106 233.065 35.062C233.341 34.8027 233.558 34.5297 233.706 34.1773C234.147 33.1331 234.57 31.2427 234.124 30.1828C237.209 30.7199 253.108 34.6181 254.628 33.9457C255.129 33.7238 255.531 33.0768 255.724 32.5879C256.094 31.6462 256.369 30.5859 255.956 29.6237Z"/>
	<path fill="#FE9F8B" d="M244.646 61.7615C245.985 61.6954 247.369 61.6937 248.692 61.4709L248.775 61.5734C250.611 63.8988 251.124 66.7031 254.588 67.1792C256.307 67.4156 259.181 67.3541 260.579 66.1712C260.608 66.1468 260.634 66.1187 260.661 66.0924C260.681 66.0785 260.702 66.0648 260.723 66.0506C262.264 64.9888 262.518 62.1591 264.464 61.9731C265.062 62.4704 265.227 62.9456 265.302 63.7238C265.465 65.4277 265.405 70.6978 264.573 72.0788C264.076 73.9225 258.756 78.521 257.114 79.4589C253.627 81.451 249.588 82.3285 245.661 81.2528C241.82 80.2011 239.012 78.3844 237.031 74.8784C236.225 73.4524 235.233 70.6732 233.609 70.2752C233.468 70.2406 233.327 70.2211 233.183 70.2079C233.627 70.0737 233.945 69.9035 234.213 69.5113C234.592 68.9583 234.793 68.4867 234.682 67.8303C237.137 68.2107 239.617 68.1824 241.715 66.6689C243.35 65.4897 244.23 63.6931 244.646 61.7615Z"/>
	<path fill="#EDF4FE" d="M86.3133 48.4963C86.4504 48.5392 86.5749 48.6145 86.6897 48.7001C87.0846 48.9946 87.497 50.1432 87.7204 50.6014C89.4793 54.2093 90.7676 57.7538 91.0813 61.7843C91.5976 68.418 89.4795 74.1806 85.1827 79.1982C78.4939 80.3369 72.7245 81.1061 66.3437 78.0968C63.7178 76.3941 62.0608 74.008 61.1069 71.0394C58.8952 64.1571 60.08 56.3253 63.3506 50.0064C72.0027 51.3609 78.0775 52.3571 86.3133 48.4963Z"/>
	<path d="M64.9044 56.9928C65.7026 56.9365 66.6687 56.8005 67.3861 57.2323C67.8133 57.4894 68.109 57.8677 68.2209 58.3476C68.4344 59.2636 67.932 60.1139 67.4781 60.8686C66.671 61.062 65.7912 61.155 65.0539 60.6936C64.6358 60.432 64.3613 60.0132 64.2501 59.5459C64.01 58.5367 64.3885 57.8182 64.9044 56.9928Z"/>
	<path d="M79.0633 55.9501C79.7981 56.0031 80.63 56.1995 81.1721 56.726C81.508 57.0522 81.6599 57.4421 81.6633 57.9089C81.6708 58.9434 80.9818 59.6498 80.3058 60.334C79.8426 60.3106 79.3074 60.2957 78.8713 60.1248C78.2699 59.8891 77.7257 59.3707 77.4695 58.7759C77.256 58.2801 77.2933 57.752 77.4887 57.257C77.78 56.5193 78.3885 56.2558 79.0633 55.9501Z"/>
	<path d="M77.069 65.4296C77.541 65.4185 78.053 65.495 78.507 65.6189C79.1129 65.7841 79.598 66.1037 79.8991 66.6586C80.1355 67.0943 80.1053 67.7235 79.9571 68.1848C79.4383 69.7997 77.8782 71.1464 76.4203 71.9113C74.1112 73.123 72.059 72.9077 69.652 72.142C68.6255 71.6129 67.7056 70.9419 67.1345 69.9155C66.7846 69.2866 66.8313 68.8923 67.0177 68.2386C68.9457 65.9563 71.1154 69.1206 73.3756 68.8101C75.0825 68.5756 76.1332 66.7084 77.069 65.4296Z"/>
	<path fill="#FEE49A" d="M222.15 48.618C236.435 47.963 250.785 46.665 265.082 46.6351C265.275 46.9688 265.41 47.3037 265.485 47.6823C265.876 49.6538 265.943 55.6803 264.857 57.2802C258.974 56.5865 252.796 57.3114 246.895 57.4674C241.633 57.6065 236.351 57.338 231.108 57.9209C230.175 58.0246 228.652 58.0771 228.032 58.8748C228.01 58.9033 227.989 58.9326 227.967 58.9614C227.77 59.2182 227.54 59.5115 227.448 59.8265C227.293 60.3595 227.447 60.7717 227.717 61.2252C228.132 61.9203 228.731 62.4478 229.527 62.6309C229.872 62.7101 230.202 62.8247 230.538 62.9312C231.621 65.3052 232.381 66.5038 234.682 67.8303C234.793 68.4867 234.592 68.9583 234.213 69.5113C233.945 69.9035 233.627 70.0737 233.183 70.2079Q232.894 70.2987 232.608 70.3992C231.981 70.6204 231.467 70.789 231.166 71.4325C230.664 72.5062 230.784 73.7308 231.175 74.8175C232.74 79.1749 236.671 83.0374 240.829 84.946C245.664 87.165 251.485 87.4679 256.479 85.5841C258.188 84.9392 262.599 83.1002 263.358 81.4418C263.365 81.4606 263.373 81.4791 263.379 81.498C263.39 81.5295 263.399 81.5618 263.41 81.593C263.636 82.1862 263.658 82.6288 263.597 83.2529C263.304 86.2188 261.117 95.0602 258.868 96.9137C252.539 97.2602 246.154 97.1158 239.817 97.0764C235.624 97.0503 231.305 97.2259 227.126 96.8899C226.147 96.8111 224.795 96.7852 224.13 95.9672C222.1 93.4695 223.024 80.2568 223.28 76.6713C223.549 72.8962 219.234 74.5641 217.422 72.4098C217.106 71.6431 217.164 71.1246 217.454 70.3545C218.426 67.7805 220.108 67.8625 222.289 66.8396L222.406 66.7839C222.459 66.6625 222.468 66.6504 222.505 66.5359C222.89 65.3475 222.617 49.5773 222.15 48.618Z"/>
	<path fill="#EDF4FE" d="M316.18 39.4765C321.537 39.5595 326.919 39.9698 332.26 40.3867C332.428 41.2032 332.549 42.2945 332.966 43.0192C334.495 45.678 339.128 44.9157 341.735 45.1462C343.256 45.2808 344.791 45.6154 346.259 46.0257C348.165 50.0802 345.264 63.3995 346.601 68.5474C346.739 69.0758 347.006 69.4754 347.497 69.7484Q347.831 69.9318 348.195 70.0448Q348.559 70.1579 348.938 70.1961Q349.317 70.2343 349.696 70.1961Q350.075 70.1579 350.439 70.0449C350.277 71.7571 350.693 73.8194 350.181 75.4344C349.427 75.2572 348.509 75.1489 347.738 75.2976C343.706 76.0746 346.253 94.7867 343.736 98.3202C339.264 98.2525 334.785 98.242 330.323 97.91C324.265 97.4593 318.252 96.4832 312.198 96.0511C307.93 95.7466 303.649 95.8784 299.375 95.9473C299.552 95.6355 299.706 95.2341 299.729 94.8747C299.989 90.9353 299.789 86.8571 299.853 82.8966L300.349 54.5362C300.4 52.283 300.036 46.959 300.824 45.0133C301.858 42.4578 312.378 44.6263 315.072 43.4705C315.579 43.253 316.091 42.8458 316.276 42.3061C316.538 41.5362 316.529 40.2067 316.18 39.4765Z"/>
	<path d="M311.667 57.3748C312.982 57.1225 314.31 57.0181 315.48 57.7917C316.519 58.4786 317.232 59.6011 317.477 60.815C317.719 62.017 317.532 63.2731 316.845 64.3009C316.207 65.2554 315.429 65.8184 314.301 66.0434C313.957 66.3037 312.956 66.298 312.517 66.2828C311.666 66.2534 310.947 65.9303 310.379 65.2896C309.472 64.2666 309.188 62.8025 309.286 61.4755C309.423 59.6164 310.292 58.5481 311.667 57.3748Z"/>
	<path d="M311.669 50.3747C313.739 50.2818 318.323 49.61 319.979 50.8173C320.405 51.1277 320.637 51.7262 320.694 52.2342C320.771 52.9125 320.601 53.6083 320.143 54.1227C319.27 55.1011 315.716 54.8842 314.437 54.9309C312.43 54.9806 308.528 55.9056 306.918 54.5451C306.447 54.1478 306.217 53.6348 306.166 53.0275C306.121 52.4914 306.193 51.9943 306.551 51.5754C307.532 50.4274 310.25 50.5024 311.669 50.3747Z"/>
	<path d="M331.79 58.8749C332.838 58.75 334.045 58.9234 334.908 59.5562C335.868 60.2601 336.455 61.3492 336.632 62.5135Q336.671 62.7692 336.685 63.0275Q336.698 63.2858 336.686 63.5442Q336.674 63.8026 336.637 64.0585Q336.599 64.3144 336.536 64.5654Q336.474 64.8163 336.386 65.0598Q336.299 65.3033 336.188 65.5369Q336.077 65.7706 335.943 65.9921Q335.81 66.2136 335.655 66.4208C334.772 67.5851 333.7 67.9376 332.327 68.1252Q331.76 68.1831 331.199 68.078Q330.639 67.9729 330.131 67.7134C329.279 67.2849 328.683 66.3892 328.392 65.5037C327.929 64.0962 328.047 62.4213 328.75 61.1113C329.433 59.8367 330.475 59.2758 331.79 58.8749Z"/>
	<path d="M328.73 52.3748C330.965 52.1894 338.517 52.84 340.363 53.9939C340.932 54.3495 341.428 54.8957 341.574 55.5669C341.712 56.2038 341.553 56.9637 341.202 57.5082C340.776 58.1671 340.013 58.2634 339.301 58.3975C339.273 58.402 339.245 58.407 339.217 58.4109C337.015 58.7182 329.847 57.9705 328.097 56.6208C327.632 56.2622 327.288 55.8342 327.229 55.2348C327.129 54.2077 328.097 53.0964 328.73 52.3748Z"/>
	<path d="M328.612 75.8748C329.419 75.7412 330.509 75.6058 331.308 75.8164C331.99 75.9963 332.566 76.4145 332.904 77.039C333.406 77.9668 333.289 79.0719 332.989 80.0445C332.147 82.7662 329.993 85.0992 327.498 86.4094C323.911 88.2932 320.793 88.1031 317.064 86.9557C316.305 85.7937 314.599 85.4248 313.931 83.9305C313.701 83.4178 313.623 82.6957 313.834 82.1647C314.982 79.2696 321.461 83.6123 324.756 82.0413C325.485 81.6936 326.489 80.8376 326.762 80.0652C327.823 78.8596 327.561 77.0715 328.612 75.8748Z"/>
	<path fill="#C1A99C" d="M97.3075 82.8383C105.36 83.1455 113.457 82.9886 121.516 82.9938C125.031 82.9961 129.15 82.5741 132.57 83.2588C133.937 83.5325 135.519 84.5635 136.725 85.2665C145.904 90.6175 154.758 96.5263 163.856 102.016Q168.56 104.836 173.293 107.606C174.693 108.422 176.395 109.131 177.626 110.171C181.653 109.352 185.377 107.212 189.084 105.506C191.011 104.619 193 103.887 194.935 103.018C195.121 103.157 195.283 103.311 195.424 103.497C196.879 105.408 202.103 122.312 201.812 124.6C201.834 124.685 201.837 124.688 201.851 124.787C201.867 124.903 197.388 140.22 197.042 141.279C196.906 141.694 196.672 142.069 196.409 142.415C192.587 141.202 188.27 142.299 184.487 141.031C181.368 139.986 178.497 138.019 175.53 136.596C165.868 131.963 156.338 127.065 146.644 122.497C140.542 119.491 134.417 116.419 128.173 113.721C124.129 111.975 120.281 112.076 115.98 112.161C99.699 112.484 85.7115 117.402 70.2777 121.8C62.2423 124.09 53.7355 126.005 45.9636 129.076C42.4608 116.295 38.3085 103.664 34.5885 90.9413C44.6807 88.3182 55.3946 87.895 65.5668 85.7056C73.4559 88.7551 83.834 88.4224 91.7364 85.6021C93.6905 84.9047 95.3656 83.5692 97.3075 82.8383Z"/>
</svg>
